<svg id="Image_1" data-name="Image 1" xmlns="http://www.w3.org/2000/svg" xmlns:xlink="http://www.w3.org/1999/xlink" width="288.475" height="262.642" viewBox="0 0 288.475 262.642">
  <defs>
    <linearGradient id="linear-gradient" y1="0.5" x2="2.724" y2="0.5" gradientUnits="objectBoundingBox">
      <stop offset="0" stop-color="#222e51" stop-opacity="0"/>
      <stop offset="1" stop-color="#231f20"/>
    </linearGradient>
    <linearGradient id="linear-gradient-2" x1="2.335" y1="0.501" x2="-0.242" y2="0.499" xlink:href="#linear-gradient"/>
    <linearGradient id="linear-gradient-3" x1="-1.361" y1="0.5" x2="1.29" y2="0.5" xlink:href="#linear-gradient"/>
    <linearGradient id="linear-gradient-4" x1="0.763" y1="0.365" x2="-1.251" y2="1.175" xlink:href="#linear-gradient"/>
    <linearGradient id="linear-gradient-5" x1="1.233" y1="0.501" x2="-4.559" y2="0.496" gradientUnits="objectBoundingBox">
      <stop offset="0" stop-color="#fff" stop-opacity="0"/>
      <stop offset="1" stop-color="#fff"/>
    </linearGradient>
    <linearGradient id="linear-gradient-6" x1="-0.124" y1="0.373" x2="2.772" y2="0.961" xlink:href="#linear-gradient-5"/>
    <linearGradient id="linear-gradient-7" x1="0.501" y1="0.361" x2="0.642" y2="2.301" xlink:href="#linear-gradient"/>
    <linearGradient id="linear-gradient-8" x1="1.21" y1="0.479" x2="-1.978" y2="0.557" xlink:href="#linear-gradient"/>
    <linearGradient id="linear-gradient-9" x1="2.045" y1="0.521" x2="-3.091" y2="0.452" xlink:href="#linear-gradient"/>
    <linearGradient id="linear-gradient-10" x1="-0.537" y1="0.5" x2="8.017" y2="0.5" xlink:href="#linear-gradient"/>
    <linearGradient id="linear-gradient-11" x1="0.489" y1="1.85" x2="0.563" y2="-6.25" xlink:href="#linear-gradient"/>
    <linearGradient id="linear-gradient-12" x1="1.274" y1="0.376" x2="-2.043" y2="0.889" xlink:href="#linear-gradient-5"/>
    <linearGradient id="linear-gradient-13" x1="0.824" y1="-0.157" x2="-0.711" y2="3.406" xlink:href="#linear-gradient"/>
    <linearGradient id="linear-gradient-14" x1="1.657" y1="0.837" x2="-2.426" y2="-0.353" xlink:href="#linear-gradient-5"/>
    <linearGradient id="linear-gradient-15" x1="0.268" y1="0.47" x2="4.733" y2="1.112" xlink:href="#linear-gradient"/>
    <linearGradient id="linear-gradient-16" x1="0.733" y1="0.039" x2="-0.693" y2="3.438" xlink:href="#linear-gradient"/>
    <linearGradient id="linear-gradient-17" x1="-0.742" y1="0.228" x2="4.728" y2="1.427" xlink:href="#linear-gradient-5"/>
    <linearGradient id="linear-gradient-18" x1="0.852" y1="3.745" x2="1.216" y2="6.028" xlink:href="#linear-gradient"/>
    <linearGradient id="linear-gradient-19" x1="0.519" y1="7.675" x2="1.997" y2="9.041" xlink:href="#linear-gradient"/>
    <linearGradient id="linear-gradient-20" x1="1.322" y1="4.781" x2="0.583" y2="7.163" xlink:href="#linear-gradient"/>
    <linearGradient id="linear-gradient-21" x1="1.181" y1="7.487" x2="0.131" y2="9.57" xlink:href="#linear-gradient"/>
  </defs>
  <g id="Group_2378" data-name="Group 2378">
    <g id="Background_x5F_Simple">
      <g id="Group_1871" data-name="Group 1871">
        <g id="Group_1867" data-name="Group 1867">
          <path id="Path_6303" data-name="Path 6303" d="M15.254,374.585s34.42,6.711,47.085,5.737c0,0-7.144-1.407-14.179-2.49,0,0-.541-2.923-2.49-3.355s-4.113,1.515-4.113,1.515a5.446,5.446,0,0,0-3.9-4.438c-3.572-1.082-3.572,2.706-3.572,2.706s-4.871-9.525-11.041-10.608S12.44,368.631,15.254,374.585Z" transform="translate(-14.39 -297.159)" fill="#efe5e9"/>
          <path id="Path_6304" data-name="Path 6304" d="M477.578,111.19s-13.963-.974-16.561-.541-8.9-1.515,2.462-1.028c0,0,.244-3.491,5.114-3.491s5.52,2.111,5.52,2.111S479.581,110,477.578,111.19Z" transform="translate(-346.296 -104.107)" fill="#efe5e9"/>
          <path id="Path_6305" data-name="Path 6305" d="M1035.816,272.529s13.535-3.565,16.168-3.625,8.463-3.152-2.611-.55c0,0-.891-3.384-5.677-2.474s-5.029,3.1-5.029,3.1S1033.626,271.733,1035.816,272.529Z" transform="translate(-780.066 -223.806)" fill="#efe5e9"/>
          <path id="Path_6306" data-name="Path 6306" d="M123.256,117.214c-.153.19-26.14-3.41-28.981-4.79s-5.033-3.328-2.029-4.3,4.546-.487,4.546-.487,1.7-8.118,9.66-7.631,8.28,7.55,8.118,10.959c0,0,1.055-1.461,3.653-.568s1.461,2.679,2.029,2.679S125.61,114.291,123.256,117.214Z" transform="translate(-71.702 -99.496)" fill="#efe5e9"/>
          <path id="Path_6307" data-name="Path 6307" d="M1003.542,406.5s-34.42,6.711-47.085,5.737c0,0,7.144-1.407,14.18-2.49,0,0,.541-2.922,2.49-3.355s4.113,1.515,4.113,1.515a5.446,5.446,0,0,1,3.9-4.438c3.572-1.082,3.572,2.706,3.572,2.706s4.871-9.525,11.041-10.607S1006.356,400.542,1003.542,406.5Z" transform="translate(-720.959 -321.093)" fill="#efe5e9"/>
          <path id="Path_6308" data-name="Path 6308" d="M909.384,122.254c.215.267,36.736-4.792,40.729-6.731s7.073-4.678,2.852-6.047-6.389-.685-6.389-.685S944.181,97.383,933,98.067s-11.637,10.61-11.409,15.4c0,0-1.483-2.054-5.134-.8s-2.054,3.765-2.852,3.765S906.076,118.147,909.384,122.254Z" transform="translate(-684.971 -98.038)" fill="#efe5e9"/>
        </g>
        <g id="Group_1868" data-name="Group 1868" transform="translate(161.749 28.296)">
          <ellipse id="Ellipse_1" data-name="Ellipse 1" cx="2.904" cy="2.904" rx="2.904" ry="2.904" transform="translate(13.139 15.996)" fill="#efe5e9"/>
          <ellipse id="Ellipse_2" data-name="Ellipse 2" cx="1.526" cy="1.526" rx="1.526" ry="1.526" transform="translate(13.139)" fill="#efe5e9"/>
          <ellipse id="Ellipse_3" data-name="Ellipse 3" cx="2.113" cy="2.113" rx="2.113" ry="2.113" transform="translate(0 1.526)" fill="#efe5e9"/>
        </g>
        <g id="Group_1869" data-name="Group 1869" transform="translate(21.038 131.162)">
          <ellipse id="Ellipse_4" data-name="Ellipse 4" cx="2.904" cy="2.904" rx="2.904" ry="2.904" transform="translate(15.725 1.589) rotate(-15.879)" fill="#efe5e9"/>
          <ellipse id="Ellipse_5" data-name="Ellipse 5" cx="1.526" cy="1.526" rx="1.526" ry="1.526" transform="translate(0 2.301) rotate(-15.879)" fill="#efe5e9"/>
          <ellipse id="Ellipse_6" data-name="Ellipse 6" cx="2.113" cy="2.113" rx="2.113" ry="2.113" transform="translate(0.216 14.591) rotate(-15.879)" fill="#efe5e9"/>
        </g>
        <g id="Group_1870" data-name="Group 1870" transform="translate(202.224 137.422)">
          <ellipse id="Ellipse_7" data-name="Ellipse 7" cx="2.904" cy="2.904" rx="2.904" ry="2.904" transform="translate(15.725 1.589) rotate(-15.879)" fill="#efe5e9"/>
          <ellipse id="Ellipse_8" data-name="Ellipse 8" cx="1.526" cy="1.526" rx="1.526" ry="1.526" transform="translate(0 2.301) rotate(-15.879)" fill="#efe5e9"/>
          <ellipse id="Ellipse_9" data-name="Ellipse 9" cx="2.113" cy="2.113" rx="2.113" ry="2.113" transform="translate(0.216 14.592) rotate(-15.879)" fill="#efe5e9"/>
        </g>
      </g>
    </g>
    <g id="Layer_x5F_Mobile" transform="translate(38.633 63.165)">
      <g id="Group_1872" data-name="Group 1872">
        <path id="Path_6309" data-name="Path 6309" d="M301.021,560.17c-5.977,3.426-17.021,1.147-21.232-5.792L170.4,400.933c-1.4-2.036-1.73-5.957-1.274-8.18s2.942-4.742,4.614-5.894a7.722,7.722,0,0,1,1.51-.808l57.539-19.04a12.791,12.791,0,0,1,14.709,3.933L362.164,508.364a26.066,26.066,0,0,1,2.321,4.519,9.662,9.662,0,0,1,.537,5.667,8.517,8.517,0,0,1-3.605,6.087Z" transform="translate(-168.935 -362.265)" fill="#212e51"/>
        <path id="Path_6310" data-name="Path 6310" d="M369.266,508.707q-.265.182-.546.349l-57.506,33.411a13.333,13.333,0,0,1-17.522-3.816l-109.6-153.116a7.58,7.58,0,0,1-1.317-5.763,7.626,7.626,0,0,1,4.695-5.79l59.01-22.369a12.791,12.791,0,0,1,14.709,3.933L371.3,495.173a9.291,9.291,0,0,1,1.911,7.211,9.409,9.409,0,0,1-3.948,6.323Z" transform="translate(-179.229 -350.717)" fill="#ed5a76"/>
        <path id="Path_6311" data-name="Path 6311" d="M199.468,391.254,308.086,542.945a11.207,11.207,0,0,0,14.686,3.2l56.68-32.491a7.22,7.22,0,0,0,1.988-10.681L271.327,363.345a10.554,10.554,0,0,0-12.206-3.264l-57.231,22.89A5.483,5.483,0,0,0,199.468,391.254Z" transform="translate(-191.065 -357.174)" fill="#efe5e9"/>
        <path id="Path_6312" data-name="Path 6312" d="M247.949,385.119l42.65-17.077,3.76,4.517c1.822,2.541-.244,3.843-3.147,5l-32.6,14.525c-3.813,1.521-6.578-1.215-9.118-4.438Z" transform="translate(-228.197 -363.711)" fill="#ed5a76"/>
        <path id="Path_6313" data-name="Path 6313" d="M280.209,409.073h0a.741.741,0,0,1,.4-.968l25.165-10.466a.741.741,0,0,1,.968.4h0a.741.741,0,0,1-.4.968l-25.165,10.466A.741.741,0,0,1,280.209,409.073Z" transform="translate(-252.35 -385.867)" fill="#fff"/>
        <ellipse id="Ellipse_10" data-name="Ellipse 10" cx="1.172" cy="1.172" rx="1.172" ry="1.172" transform="translate(55.459 9.985)" fill="#fff"/>
      </g>
    </g>
    <g id="Layer_x5F_Character_1" transform="translate(68.678 53.009)">
      <path id="Path_6314" data-name="Path 6314" d="M378.292,611.315s-13.008,4.569-33.072-9.852-61.847-68-55.435-78.441,35.876-4.152,75.028,27.659S394.2,611.655,378.292,611.315Z" transform="translate(-289.122 -466.307)" fill="url(#linear-gradient)"/>
      <g id="RIHT_LEG" transform="translate(89.813 111.497)">
        <path id="Path_6315" data-name="Path 6315" d="M668.785,756.114v37.277a52.109,52.109,0,0,1-11.629,1.213q-1.717-.006-3.473-.116-2.61-.162-5.28-.559v-32.3l3.687-1,7.761-2.1Z" transform="translate(-648.403 -756.114)" fill="#212e51"/>
        <path id="Path_6316" data-name="Path 6316" d="M655.16,789.016a83.363,83.363,0,0,0,2,12.84q-1.718-.006-3.473-.116-2.609-.162-5.28-.559v-32.3l3.687-1,7.761-2.1C657.3,771.973,654.54,780.819,655.16,789.016Z" transform="translate(-648.403 -763.365)" fill="url(#linear-gradient-2)"/>
      </g>
      <g id="LEFT_LEG" transform="translate(64.815 109.895)">
        <path id="Path_6317" data-name="Path 6317" d="M578.681,789.681q-2.609-.162-5.28-.559a67.839,67.839,0,0,1-9.066-1.994,72.185,72.185,0,0,1-8.383-3.028q-1.924-.832-3.765-1.757c-2-11.041-3.769-25.658-3.769-25.658-.423-3.3,8.474-5.74,16.448-6.62,6.387-.707,12.182-.413,12.12,1.242-.021.6.019,2.22.1,4.516C577.375,763.76,578.175,779.775,578.681,789.681Z" transform="translate(-548.403 -749.706)" fill="#212e51"/>
        <path id="Path_6318" data-name="Path 6318" d="M558.371,772.8c.94,6.707,3.657,11.39,5.964,15.411a72.189,72.189,0,0,1-8.383-3.028q-1.924-.832-3.765-1.757c-2-11.041-3.769-25.658-3.769-25.658-.423-3.3,8.474-5.74,16.448-6.62C561.592,755.291,557,763.052,558.371,772.8Z" transform="translate(-548.403 -750.785)" fill="url(#linear-gradient-3)"/>
      </g>
      <g id="RIGHT_HAND" transform="translate(94.041 20.231)">
        <path id="Path_6319" data-name="Path 6319" d="M735.489,422.13s2.084-9.525,2.047-12.066.655-7.273-3.723-7.584-6.417,4.522-6.55,6.17,1.586,14,2.241,14.031S734.89,422.544,735.489,422.13Z" transform="translate(-711.772 -399.605)" fill="#e48780"/>
        <path id="Path_6320" data-name="Path 6320" d="M665.4,471.841s8.218,1.011,12.022,10.388,7.573,20.593,7.021,24.638-5.148,5.608-7.538,2.114-12.576-33.567-11.505-37.14" transform="translate(-665.316 -451.637)" fill="#22aae2"/>
        <path id="Path_6321" data-name="Path 6321" d="M665.4,471.841s8.218,1.011,12.022,10.388,7.573,20.593,7.021,24.638-5.148,5.608-7.538,2.114-12.576-33.567-11.505-37.14" transform="translate(-665.316 -451.637)" fill="url(#linear-gradient-4)"/>
        <path id="Path_6322" data-name="Path 6322" d="M679.669,397.925l-2.685-1.153a3.315,3.315,0,0,0-1.145,1.277,2.512,2.512,0,0,0-.165,1.565l2.491,1.112s1.277-1.209,1.359-1.665S679.669,397.925,679.669,397.925Z" transform="translate(-673.043 -395.334)" fill="#ed5a76"/>
        <path id="Path_6323" data-name="Path 6323" d="M734.007,506.789c-.093,6.527-.921,11.767-6.933,13.79-5.141,1.727-5.026-1.782-4.971-5.473.01-.629.017-1.259,0-1.873-.135-4.22,1.886-26.454,1.886-26.454.055-.62.893-1,2.025-1.23a31.942,31.942,0,0,1,6.525-.273S734.1,500.262,734.007,506.789Z" transform="translate(-707.897 -461.672)" fill="#22aae2"/>
        <path id="Path_6324" data-name="Path 6324" d="M726.025,486.538c-.519,3.257-2.015,13.039-2.394,19.769a41.889,41.889,0,0,1-1.515,9.788c.011-.629.017-1.259,0-1.873C721.979,510,724,487.767,724,487.767,724.055,487.148,724.893,486.767,726.025,486.538Z" transform="translate(-707.911 -462.66)" fill="url(#linear-gradient-5)"/>
        <path id="Path_6325" data-name="Path 6325" d="M733.7,480.257s-.076,2.163.323,2.39a16.046,16.046,0,0,0,5.424-.4c.965-.43,1.241-.38,1.287-.75s0-2.361,0-2.361a32.167,32.167,0,0,1-4.689.382C734.987,479.383,733.7,479.475,733.7,480.257Z" transform="translate(-716.6 -457.111)" fill="#22aae2"/>
        <path id="Path_6326" data-name="Path 6326" d="M699.719,411.75s-1.172-.552-2.925-1.382c-5.182-2.45-15.445-7.317-15.6-7.5-.2-.248-.823-1.854.66-5.559a7.483,7.483,0,0,1,.33-.719,5.407,5.407,0,0,1,4.241-3.111l14.865,4.241C706.11,401.756,699.719,411.75,699.719,411.75Z" transform="translate(-676.998 -392.864)" fill="#f6b042"/>
        <path id="Path_6327" data-name="Path 6327" d="M749.976,417.529c0,3.911-2.287,7.082-5.108,7.082a3.973,3.973,0,0,1-2.279-.743,7.7,7.7,0,0,1-2.827-6.338c0-3.805,2.161-6.907,4.873-7.076.078-.006.155-.008.233-.008C747.69,410.446,749.976,413.616,749.976,417.529Z" transform="translate(-721.152 -405.59)" fill="#212e51"/>
        <path id="Path_6328" data-name="Path 6328" d="M747.462,416.816c0,3.8-2.161,6.905-4.873,7.074a7.7,7.7,0,0,1-2.827-6.338c0-3.805,2.161-6.907,4.873-7.076A7.7,7.7,0,0,1,747.462,416.816Z" transform="translate(-721.153 -405.612)" fill="#22aae2"/>
        <path id="Path_6329" data-name="Path 6329" d="M696.793,419.7c-5.182-2.45-15.445-7.317-15.6-7.5-.2-.248-.823-1.854.66-5.559a7.443,7.443,0,0,1,.33-.719c3.176,1.431,8.888,4.389,10.726,7.846A43.341,43.341,0,0,0,696.793,419.7Z" transform="translate(-676.998 -402.199)" fill="none" stroke="#000" stroke-width="1"/>
        <path id="Path_6330" data-name="Path 6330" d="M750.677,400.925h0a.792.792,0,0,1-.337,1.069l-2.479,1.29a.794.794,0,0,1-1.071-.336h0a.792.792,0,0,1,.337-1.069l2.479-1.29A.794.794,0,0,1,750.677,400.925Z" transform="translate(-726.356 -398.129)" fill="#e48780"/>
        <path id="Path_6331" data-name="Path 6331" d="M742.435,397.932h0A.792.792,0,0,1,742.1,399l-2.479,1.29a.794.794,0,0,1-1.071-.336h0a.792.792,0,0,1,.337-1.069l2.479-1.29A.794.794,0,0,1,742.435,397.932Z" transform="translate(-720.175 -395.884)" fill="#e48780"/>
        <path id="Path_6332" data-name="Path 6332" d="M735.6,394.142h0a.792.792,0,0,1-.337,1.069l-2.479,1.29a.794.794,0,0,1-1.071-.336h0a.792.792,0,0,1,.337-1.069l2.479-1.29A.794.794,0,0,1,735.6,394.142Z" transform="translate(-715.052 -393.042)" fill="#e48780"/>
        <path id="Path_6333" data-name="Path 6333" d="M726.114,391.446h0a.792.792,0,0,1-.337,1.069l-2.479,1.29a.794.794,0,0,1-1.071-.336h0a.792.792,0,0,1,.337-1.069l2.479-1.29A.794.794,0,0,1,726.114,391.446Z" transform="translate(-707.933 -391.02)" fill="#e48780"/>
        <path id="Path_6334" data-name="Path 6334" d="M747.462,416.816c0,3.8-2.161,6.905-4.873,7.074a7.7,7.7,0,0,1-2.827-6.338c0-3.805,2.161-6.907,4.873-7.076A7.7,7.7,0,0,1,747.462,416.816Z" transform="translate(-721.153 -405.612)" fill="url(#linear-gradient-6)"/>
        <ellipse id="Ellipse_11" data-name="Ellipse 11" cx="1.069" cy="1.473" rx="1.069" ry="1.473" transform="translate(22.759 7.327)" fill="#fff"/>
        <path id="Path_6335" data-name="Path 6335" d="M733.7,480.257s-.076,2.163.323,2.39a16.046,16.046,0,0,0,5.424-.4c.965-.43,1.241-.38,1.287-.75s0-2.361,0-2.361a32.167,32.167,0,0,1-4.689.382C734.987,479.383,733.7,479.475,733.7,480.257Z" transform="translate(-716.6 -457.111)" fill="url(#linear-gradient-7)"/>
      </g>
      <g id="BODY" transform="translate(57.986 37.912)">
        <path id="Path_6336" data-name="Path 6336" d="M577.458,536.622s-.241,4.692-15.9,8.461q-1.555.371-3.314.732a54.134,54.134,0,0,1-17.246.709,47.814,47.814,0,0,1-15.756-4.478l4.044-22.8s-3.083-15.915-5.469-28.981c-1.1-6.019-2.049-11.432-2.48-14.412a11.466,11.466,0,0,1-.233-2.387c.459-1.2,7.629-5.333,7.629-5.333s.921-3.676.921-4.319,3.4-2.023,3.4-2.023,7.17-.091,9.837,0,2.573,2.023,2.573,2.023,8.918-.368,11.754.459,8.288,15.813,10.861,25.741S577.458,536.622,577.458,536.622Z" transform="translate(-521.086 -461.749)" fill="#22aae2"/>
        <path id="Path_6337" data-name="Path 6337" d="M562.311,587.4q-1.555.372-3.314.732a54.131,54.131,0,0,1-17.246.709,47.815,47.815,0,0,1-15.756-4.478l4.044-22.8s-3.083-15.915-5.469-28.981c-1.1-6.019-2.049-11.432-2.48-14.412,5.329,1.71,13.934,5.61,18.954,13.839,7.657,12.548,7.244,25.925,5.037,28.405s13.79,7.035,7.723,8.688-13.652,1.932-10.067,7.723C546.032,580.53,555.67,584.8,562.311,587.4Z" transform="translate(-521.839 -504.064)" fill="url(#linear-gradient-8)"/>
        <path id="Path_6338" data-name="Path 6338" d="M533.436,627.6l4.044-22.8s-3.084-15.915-5.469-28.981c5.219,10.831,13.255,28.276,12.41,31.28-1.081,3.841-8.427,19.377,4.77,24.979A47.816,47.816,0,0,1,533.436,627.6Z" transform="translate(-529.28 -547.305)" fill="url(#linear-gradient-9)"/>
      </g>
      <g id="HEAD" transform="translate(60.265)">
        <path id="Path_6339" data-name="Path 6339" d="M539.708,341.608a16.965,16.965,0,0,1-7.309-6.389c-3.034-4.734-3.447-13.744,2.114-14.341,0,0-2.85-1.333-1.839-1.931s2.528.276,2.528.276-1.7-3.355-1.057-4.321,2.252,3.264,2.252,3.264,2.574-6.941,9.837-7.906,13.56,2.252,16.732,8.6-1.011,10.618-7.033,10.756-10.066,8.55-12.457,9.745A25.517,25.517,0,0,0,539.708,341.608Z" transform="translate(-530.201 -310.09)" fill="#212e51"/>
        <path id="Path_6340" data-name="Path 6340" d="M572.334,396.67l-.053.013V401a33.238,33.238,0,0,1-7.538,1.149c-.36,0-.69-.011-.993-.032-2.6-.178-3.189-1.026-3.189-1.026v-8.641l.872-.965s-2.9-2.62-2.389-5.1,3.907-4.413,5.194-.734l.368,1.608s5.009-3.862,3.585-8.825a22.022,22.022,0,0,0,13.686.775S584.454,393.972,572.334,396.67Z" transform="translate(-551.789 -361.351)" fill="#e48780"/>
        <path id="Path_6341" data-name="Path 6341" d="M568.185,407.846s0-2.942-1.149-3.218-1.747,1.287-1.747,1.287l.873-.368s-.919,1.563.046,2.528S568.3,409.161,568.185,407.846Z" transform="translate(-556.518 -380.972)" fill="url(#linear-gradient-10)"/>
        <path id="Path_6342" data-name="Path 6342" d="M586.634,443l-.053.013v4.322a33.237,33.237,0,0,1-7.538,1.149c-.36,0-.69-.011-.992-.032l.165-8.243A14.434,14.434,0,0,0,586.634,443Z" transform="translate(-566.089 -407.684)" fill="url(#linear-gradient-11)"/>
      </g>
      <g id="LEFT_HAND" transform="translate(52.396 23.29)">
        <path id="Path_6343" data-name="Path 6343" d="M683.294,408.611s4.62-.621,4.688-1.379-5.114-2.137-6.435-2.517-1.77-.414-2.39-.172-3.774.817-3.525,1.184a32.977,32.977,0,0,0,5.915,2.746A8.456,8.456,0,0,0,683.294,408.611Z" transform="translate(-631.398 -404.107)" fill="#212e51"/>
        <path id="Path_6344" data-name="Path 6344" d="M708.046,415.759v2.206s-4.192.793-5.113.172a1.071,1.071,0,0,1-.438-1.448Z" transform="translate(-651.462 -412.634)" fill="#212e51"/>
        <path id="Path_6345" data-name="Path 6345" d="M632.258,408.221l-3-1.287a3.7,3.7,0,0,0-1.278,1.425,2.8,2.8,0,0,0-.184,1.747l2.781,1.241s1.425-1.35,1.517-1.859S632.258,408.221,632.258,408.221Z" transform="translate(-595.486 -406.015)" fill="#ed5a76"/>
        <path id="Path_6346" data-name="Path 6346" d="M654.638,423.653s-1.308-.616-3.266-1.543c-5.784-2.734-17.24-8.167-17.411-8.372-.229-.277-.919-2.07.737-6.205a8.275,8.275,0,0,1,.368-.8,6.034,6.034,0,0,1,4.734-3.473l16.592,4.734C661.772,412.5,654.638,423.653,654.638,423.653Z" transform="translate(-599.901 -403.258)" fill="#f6b042"/>
        <path id="Path_6347" data-name="Path 6347" d="M520.13,549.73s0,0,0,0a8.186,8.186,0,0,1-7.892-.216c-3.953-2.353-14.615-20.353-13.42-31.2a29.512,29.512,0,0,1,1.28-6.059c2.025-6.123,5.373-8.237,5.373-8.237,2.612-.044,2.815,3.447,5.27,9.974s9.68,18.2,11.7,27.671C523.371,546.014,522.128,548.52,520.13,549.73Z" transform="translate(-498.724 -478.831)" fill="#22aae2"/>
        <path id="Path_6348" data-name="Path 6348" d="M520.129,574.445a8.186,8.186,0,0,1-7.892-.216c-3.953-2.353-14.615-20.353-13.42-31.2a29.511,29.511,0,0,1,1.28-6.059c.163,5.166,1.223,13.727,5.89,21.227C512.474,568.627,513.521,573.073,520.129,574.445Z" transform="translate(-498.724 -503.545)" fill="url(#linear-gradient-12)"/>
        <path id="Path_6349" data-name="Path 6349" d="M710.735,430.1c0,4.366-2.552,7.9-5.7,7.9a4.435,4.435,0,0,1-2.544-.83c-1.871-1.3-3.156-3.977-3.156-7.075,0-4.247,2.413-7.71,5.439-7.9.087-.006.174-.008.26-.008C708.183,422.2,710.735,425.735,710.735,430.1Z" transform="translate(-649.186 -417.462)" fill="#212e51"/>
        <path id="Path_6350" data-name="Path 6350" d="M707.929,429.307c0,4.245-2.413,7.708-5.439,7.9-1.871-1.3-3.155-3.977-3.155-7.075,0-4.247,2.413-7.71,5.439-7.9A8.6,8.6,0,0,1,707.929,429.307Z" transform="translate(-649.186 -417.488)" fill="#22aae2"/>
        <path id="Path_6351" data-name="Path 6351" d="M651.372,432.53c-5.784-2.734-17.24-8.167-17.411-8.372-.229-.277-.919-2.07.736-6.205a8.323,8.323,0,0,1,.368-.8c3.545,1.6,9.921,4.9,11.972,8.757A48.352,48.352,0,0,0,651.372,432.53Z" transform="translate(-599.901 -413.677)" fill="url(#linear-gradient-13)"/>
        <path id="Path_6352" data-name="Path 6352" d="M574.013,494.276S571.958,516.8,567.545,527,557.8,542.355,553.3,540.675a5.624,5.624,0,0,1-1.344-.724c-3.177-2.288-4.021-7.581-3.691-9.6a2.639,2.639,0,0,1,.07-.317c.55-1.913,17.375-38.52,17.375-38.52a8.53,8.53,0,0,1,1.221-.059,10.434,10.434,0,0,1,3.862.866A12.738,12.738,0,0,1,574.013,494.276Z" transform="translate(-535.828 -469.409)" fill="#22aae2"/>
        <path id="Path_6353" data-name="Path 6353" d="M567.128,491.46c-2.658,6.087-13.07,29.9-14.188,32.143a65.854,65.854,0,0,1-4.478,6.753,2.664,2.664,0,0,1,.07-.317c.55-1.913,17.375-38.52,17.375-38.52A8.527,8.527,0,0,1,567.128,491.46Z" transform="translate(-536.028 -469.409)" fill="url(#linear-gradient-14)"/>
        <path id="Path_6354" data-name="Path 6354" d="M627.125,422.274s-.586,2.068-.207,2.689,3.758,2.192,4.413,2.2.862-.051,1.138-.441a9.639,9.639,0,0,0,.66-1.827,5.367,5.367,0,0,0,3.371-3.861c.968-3.241,2.312-6.378,3.415-7.515s3.723-3.068,3.206-3.689-1.931.093-2.93.908-2.689,2.4-2.689,2.4a18.269,18.269,0,0,1,1.9-2.4c.758-.7,2.758-1.6,2.965-2.184s-.138-1.1-.414-1.1a22.932,22.932,0,0,0-4.378,2.31,24.383,24.383,0,0,0-2.379,2.517s1.965-3,2.724-3.447a17.613,17.613,0,0,0,2.861-1.655.823.823,0,0,0-.172-.931,32.989,32.989,0,0,0-3.275,1.034,18.976,18.976,0,0,0-3.1,2.586c-.621.552-1.264,1.1-1.264,1.1s3.057-3.378,3.367-3.585,1.655-.621,1.827-1a.513.513,0,0,0-.483-.69,13.37,13.37,0,0,0-2.448.965c-.241.172-4.585,3.93-5.206,5.137S626.78,419.93,627.125,422.274Z" transform="translate(-594.776 -405.084)" fill="#e48780"/>
        <path id="Path_6355" data-name="Path 6355" d="M585.287,496.879s-2.055,22.522-6.468,32.727-9.746,15.352-14.249,13.672a5.624,5.624,0,0,1-1.344-.724c4.944-2.707,7.4-10.332,11.435-18.738,3.367-7.018,6.042-20.814,7.4-28.888A12.738,12.738,0,0,1,585.287,496.879Z" transform="translate(-547.102 -472.012)" fill="url(#linear-gradient-15)"/>
        <path id="Path_6356" data-name="Path 6356" d="M619.578,482.67s.931-3.378,1.31-3.516,5.344.724,6.24,1.965.538,1.31.424,2.1-.286,2.1-.493,2.137A48.445,48.445,0,0,1,621.3,483.7,18.661,18.661,0,0,1,619.578,482.67Z" transform="translate(-589.367 -460.171)" fill="#22aae2"/>
        <path id="Path_6357" data-name="Path 6357" d="M619.578,482.67s.931-3.378,1.31-3.516,5.344.724,6.24,1.965.538,1.31.424,2.1-.286,2.1-.493,2.137A48.445,48.445,0,0,1,621.3,483.7,18.661,18.661,0,0,1,619.578,482.67Z" transform="translate(-589.367 -460.171)" fill="url(#linear-gradient-16)"/>
        <path id="Path_6358" data-name="Path 6358" d="M707.929,429.307c0,4.245-2.413,7.708-5.439,7.9-1.871-1.3-3.155-3.977-3.155-7.075,0-4.247,2.413-7.71,5.439-7.9A8.6,8.6,0,0,1,707.929,429.307Z" transform="translate(-649.186 -417.488)" fill="url(#linear-gradient-17)"/>
        <ellipse id="Ellipse_12" data-name="Ellipse 12" cx="1.069" cy="1.473" rx="1.069" ry="1.473" transform="translate(54.446 7.556)" fill="#fff"/>
      </g>
    </g>
    <g id="Layer_x5F_Emojis" transform="translate(31.779 38.438)">
      <g id="Group_1879" data-name="Group 1879" transform="translate(0 0)">
        <g id="Group_1873" data-name="Group 1873" transform="translate(192.653 116.535)">
          <path id="Path_6359" data-name="Path 6359" d="M945.027,717.978h.607c.05.017.1.037.15.049a1.831,1.831,0,0,1,1.493,1.374,7.033,7.033,0,0,1,.217,1.4,19.826,19.826,0,0,1-.443,4.4c-.07.393-.153.784-.235,1.2h.315q2.123,0,4.247,0c.3,0,.607,0,.909.023a2.481,2.481,0,0,1,2.176,2.235,2.552,2.552,0,0,1-.411,1.59,2.516,2.516,0,0,1,0,4.266,2.444,2.444,0,0,1,.339,2,2.491,2.491,0,0,1-1.3,1.6,2.467,2.467,0,0,1-2.113,3.755c-1.952.007-3.9.01-5.857,0a22.9,22.9,0,0,1-7.186-1.214.243.243,0,0,1-.2-.28q.007-6.183,0-12.367a.369.369,0,0,1,.163-.329,19.059,19.059,0,0,0,2.6-2.339,7.512,7.512,0,0,0,1.548-2.472c.4-1.11.828-2.21,1.266-3.306a3.988,3.988,0,0,1,.487-.842A2.211,2.211,0,0,1,945.027,717.978Z" transform="translate(-931.352 -717.978)" fill="#efe5e9"/>
          <path id="Path_6360" data-name="Path 6360" d="M912.189,760.522a.861.861,0,0,1,.928-.568c1.251.019,2.5.007,3.754.007h.276v11.8h-.276c-1.251,0-2.5-.009-3.754,0a.834.834,0,0,1-.928-.6Z" transform="translate(-912.189 -749.46)" fill="#22aae2"/>
        </g>
        <g id="Group_1874" data-name="Group 1874" transform="translate(202.53 150.346)">
          <path id="Path_6361" data-name="Path 6361" d="M970.426,853.231h.346c.028.009.056.021.085.028a1.044,1.044,0,0,1,.851.784,4,4,0,0,1,.124.8,11.3,11.3,0,0,1-.253,2.508c-.04.224-.087.447-.134.685h.18q1.211,0,2.422,0c.173,0,.346,0,.518.013a1.415,1.415,0,0,1,1.241,1.274,1.456,1.456,0,0,1-.235.907,1.434,1.434,0,0,1,0,2.432,1.393,1.393,0,0,1,.193,1.141,1.42,1.42,0,0,1-.741.913,1.407,1.407,0,0,1-1.2,2.141c-1.113,0-2.226.006-3.339,0a13.063,13.063,0,0,1-4.1-.692.139.139,0,0,1-.111-.16q0-3.526,0-7.052a.211.211,0,0,1,.093-.188,10.866,10.866,0,0,0,1.48-1.334,4.282,4.282,0,0,0,.883-1.409c.227-.633.472-1.26.722-1.885a2.278,2.278,0,0,1,.278-.48A1.259,1.259,0,0,1,970.426,853.231Z" transform="translate(-962.628 -853.231)" fill="#efe5e9"/>
          <path id="Path_6362" data-name="Path 6362" d="M951.7,877.491a.491.491,0,0,1,.529-.324c.713.011,1.427,0,2.141,0h.157V883.9h-.157c-.714,0-1.427-.005-2.141,0a.476.476,0,0,1-.529-.343Z" transform="translate(-951.7 -871.183)" fill="#22aae2"/>
        </g>
        <g id="Group_1876" data-name="Group 1876" transform="translate(19.05)">
          <rect id="Rectangle_2168" data-name="Rectangle 2168" width="41.649" height="22.739" transform="translate(6.52 0.761) rotate(16.661)" fill="#f6b042"/>
          <path id="Path_6363" data-name="Path 6363" d="M224.243,254.843l16.69,16.863-23.21,4.922Z" transform="translate(-217.723 -254.082)" fill="#f6b042"/>
          <path id="Path_6364" data-name="Path 6364" d="M333.78,302.612l-23.21,4.922L327.26,324.4Z" transform="translate(-287.36 -289.91)" fill="#f6b042"/>
          <path id="Path_6365" data-name="Path 6365" d="M283.7,266.785l-23.273,7.733A1.3,1.3,0,0,1,259,274.09l-15.2-19.247Z" transform="translate(-237.283 -254.083)" fill="#efe5e9"/>
          <circle id="Ellipse_13" data-name="Ellipse 13" cx="6.788" cy="6.788" r="6.788" transform="translate(33.978 9.152) rotate(-42.386)" fill="#22aae2"/>
          <g id="Group_1875" data-name="Group 1875" transform="translate(41.877 5.071)">
            <path id="Path_6366" data-name="Path 6366" d="M385.452,280.4a.7.7,0,0,1-.178-.7l2.128-7.109a.7.7,0,0,1,1.351.4l-2.128,7.109a.705.705,0,0,1-1.173.3Z" transform="translate(-385.244 -272.084)" fill="#fff"/>
          </g>
        </g>
        <g id="Group_1878" data-name="Group 1878" transform="translate(0 56.975)">
          <rect id="Rectangle_2169" data-name="Rectangle 2169" width="41.649" height="22.739" transform="translate(0.001 15.211) rotate(-7.195)" fill="#f6b042"/>
          <path id="Path_6367" data-name="Path 6367" d="M141.517,540.565l22.085,8.672-19.236,13.888Z" transform="translate(-141.517 -525.355)" fill="#f6b042"/>
          <path id="Path_6368" data-name="Path 6368" d="M249.1,519.7l-19.237,13.888,22.085,8.672Z" transform="translate(-207.777 -509.705)" fill="#f6b042"/>
          <path id="Path_6369" data-name="Path 6369" d="M182.839,519.7l-18.157,16.485a1.3,1.3,0,0,1-1.479.187l-21.684-11.455Z" transform="translate(-141.518 -509.705)" fill="#efe5e9"/>
          <ellipse id="Ellipse_14" data-name="Ellipse 14" cx="6.788" cy="6.788" rx="6.788" ry="6.788" transform="translate(29.153 13.122) rotate(-75.14)" fill="#22aae2"/>
          <g id="Group_1877" data-name="Group 1877" transform="translate(36.251 3.646)">
            <path id="Path_6370" data-name="Path 6370" d="M287.914,503.031a.7.7,0,0,1-.447-.57l-.929-7.362a.7.7,0,0,1,1.4-.177l.929,7.362a.705.705,0,0,1-.952.747Z" transform="translate(-286.532 -494.305)" fill="#fff"/>
          </g>
        </g>
      </g>
    </g>
    <g id="Layer_x5F_Plants" transform="translate(40.217 157.256)">
      <g id="Group_1884" data-name="Group 1884">
        <g id="Group_1880" data-name="Group 1880" transform="translate(10.136 32.358)">
          <path id="Path_6371" data-name="Path 6371" d="M235.415,886.415s1.916-4.079.358-13.413c-1.463-8.766-2.473-13.747-7.97-15.7-6.08-2.16-10.729.617-11.881,5.1S223.507,882.871,235.415,886.415Z" transform="translate(-215.82 -856.555)" fill="#49bccb"/>
          <path id="Path_6372" data-name="Path 6372" d="M235.415,901.744s1.916-4.079.358-13.413c0,0-4.991-7.817-7.437-6.652-1.037.494,1.731,11.554.094,10.973-6.08-2.16-11.356-19.4-12.508-14.918S223.507,898.2,235.415,901.744Z" transform="translate(-215.82 -871.884)" fill="url(#linear-gradient-18)"/>
        </g>
        <g id="Group_1881" data-name="Group 1881" transform="translate(0 49.305)">
          <path id="Path_6373" data-name="Path 6373" d="M203.962,937.622c2.461-.322-9.7-8.777-16.083-11.528s-11.3-2.108-12.416.959,2.75,8.2,9.439,9.028S201.5,937.943,203.962,937.622Z" transform="translate(-175.272 -924.35)" fill="#49bccb"/>
          <path id="Path_6374" data-name="Path 6374" d="M228.013,941.112c2.461-.322-9.7-8.777-16.083-11.528s8.772,5.009,7.657,8.077-17.323,1.087-10.634,1.91S225.552,941.434,228.013,941.112Z" transform="translate(-199.323 -927.84)" fill="url(#linear-gradient-19)"/>
        </g>
        <g id="Group_1882" data-name="Group 1882" transform="translate(31.433 34.036)">
          <path id="Path_6375" data-name="Path 6375" d="M301.267,890.727s7.843-8.567,10.18-13.925,2.157-13.107-.029-13.423-7.418-.662-9.164,9.693C300.261,884.892,301.267,890.727,301.267,890.727Z" transform="translate(-301.013 -863.267)" fill="#49bccb"/>
          <path id="Path_6376" data-name="Path 6376" d="M301.266,920.144s7.843-8.567,10.18-13.925-3.164,2.5-5.35,2.18-3.843-5.91-3.843-5.91C300.26,914.309,301.266,920.144,301.266,920.144Z" transform="translate(-301.013 -892.684)" fill="url(#linear-gradient-20)"/>
        </g>
        <g id="Group_1883" data-name="Group 1883" transform="translate(31.795 48.509)">
          <path id="Path_6377" data-name="Path 6377" d="M302.609,934.286c.784-.366,16.324-7.179,15.281-11.6-.772-3.265-6.431-.817-10.013,2.83S301.825,934.652,302.609,934.286Z" transform="translate(-302.463 -921.163)" fill="#49bccb"/>
          <path id="Path_6378" data-name="Path 6378" d="M302.609,938.036c.784-.366,16.324-7.179,15.281-11.6-.378-1.6-2.822,4.184-8.388,4.809-2.071.233.2-3.841-1.625-1.979C304.294,932.918,301.825,938.4,302.609,938.036Z" transform="translate(-302.463 -924.913)" fill="url(#linear-gradient-21)"/>
        </g>
        <path id="Path_6379" data-name="Path 6379" d="M335.586,773.34c-1.877.3-2.8,4.131.822,4.228C339.326,777.646,337.463,773.039,335.586,773.34Z" transform="translate(-294.271 -761.773)" fill="#49bccb"/>
        <path id="Path_6380" data-name="Path 6380" d="M264.893,729.547c-.173.825-.743,3.35-2.93,2.386s.022-4.614,1.134-4.8S265.246,727.863,264.893,729.547Z" transform="translate(-239.594 -727.112)" fill="#49bccb"/>
        <path id="Path_6381" data-name="Path 6381" d="M298.22,823c-1.315,1.133.229,4.563,1.908,2.913C302.032,824.045,299.535,821.868,298.22,823Z" transform="translate(-267.115 -798.796)" fill="#49bccb"/>
      </g>
    </g>
    <g id="Layer_x5F_Profile" transform="translate(198.129 47.277)">
      <g id="Group_1889" data-name="Group 1889" transform="translate(0)">
        <g id="Group_1886" data-name="Group 1886">
          <rect id="Rectangle_2170" data-name="Rectangle 2170" width="76.487" height="33.275" fill="#49bccb"/>
          <g id="Group_1885" data-name="Group 1885" transform="translate(4.261 5.825)">
            <rect id="Rectangle_2171" data-name="Rectangle 2171" width="16.548" height="16.548" transform="translate(0)" fill="#efe5e9"/>
            <ellipse id="Ellipse_15" data-name="Ellipse 15" cx="2.85" cy="2.85" rx="2.85" ry="2.85" transform="translate(5.424 2.207)" fill="#212e51"/>
            <path id="Path_6382" data-name="Path 6382" d="M842.195,349.693a7.343,7.343,0,0,1-.089,1.147H827.37a7.343,7.343,0,0,1-.089-1.147,7.457,7.457,0,1,1,14.914,0Z" transform="translate(-826.464 -334.292)" fill="#212e51"/>
            <rect id="Rectangle_2172" data-name="Rectangle 2172" width="46.609" height="1.656" transform="translate(21.356 1.304)" fill="#fff"/>
            <rect id="Rectangle_2173" data-name="Rectangle 2173" width="46.609" height="1.656" transform="translate(21.356 7.079)" fill="#f6b042"/>
            <rect id="Rectangle_2174" data-name="Rectangle 2174" width="46.609" height="1.656" transform="translate(21.356 12.854)" fill="#f6b042"/>
            <rect id="Rectangle_2175" data-name="Rectangle 2175" width="67.965" height="1.216" transform="translate(0 20.41)" fill="#fff"/>
          </g>
        </g>
        <g id="Group_1888" data-name="Group 1888" transform="translate(13.859 47.981)">
          <rect id="Rectangle_2176" data-name="Rectangle 2176" width="76.487" height="33.275" fill="#f6b042"/>
          <g id="Group_1887" data-name="Group 1887" transform="translate(4.261 5.825)">
            <rect id="Rectangle_2177" data-name="Rectangle 2177" width="16.548" height="16.548" transform="translate(0)" fill="#efe5e9"/>
            <ellipse id="Ellipse_16" data-name="Ellipse 16" cx="2.85" cy="2.85" rx="2.85" ry="2.85" transform="translate(5.424 2.207)" fill="#212e51"/>
            <path id="Path_6383" data-name="Path 6383" d="M897.635,541.633a7.337,7.337,0,0,1-.089,1.147H882.81a7.344,7.344,0,0,1-.089-1.147,7.457,7.457,0,1,1,14.914,0Z" transform="translate(-881.904 -526.232)" fill="#212e51"/>
            <rect id="Rectangle_2178" data-name="Rectangle 2178" width="46.609" height="1.656" transform="translate(21.356 1.304)" fill="#fff"/>
            <rect id="Rectangle_2179" data-name="Rectangle 2179" width="46.609" height="1.656" transform="translate(21.356 7.079)" fill="#fff"/>
            <rect id="Rectangle_2180" data-name="Rectangle 2180" width="46.609" height="1.656" transform="translate(21.356 12.854)" fill="#22aae2"/>
            <rect id="Rectangle_2181" data-name="Rectangle 2181" width="67.965" height="1.216" transform="translate(0 20.41)" fill="#fff"/>
          </g>
        </g>
      </g>
    </g>
  </g>
</svg>
